HIERARCHY
ROOT Hips
{
	OFFSET	0.00	0.00	0.00
	CHANNELS 6 Xposition Yposition Zposition Zrotation Xrotation Yrotation
	JOINT LeftUpLeg
	{
		OFFSET	 0.126116	-0.014019	-0.065224
		CHANNELS 3 Zrotation Xrotation Yrotation
		JOINT LeftLeg
		{
			OFFSET	 0.000000	 0.000000	 0.569914
			CHANNELS 3 Zrotation Xrotation Yrotation
			JOINT LeftFoot
			{
				OFFSET	 0.000000	 0.000000	 0.544423
				CHANNELS 3 Zrotation Xrotation Yrotation
				JOINT LeftToeBase
				{
					OFFSET	 0.000000	 0.000000	 0.207117
					CHANNELS 3 Zrotation Xrotation Yrotation
					End Site
					{
						OFFSET	 0.000000	 0.000000	 0.207117
					}
				}
			}
		}
	}
	JOINT RightUpLeg
	{
		OFFSET	-0.124023	-0.008373	-0.065224
		CHANNELS 3 Zrotation Xrotation Yrotation
		JOINT RightLeg
		{
			OFFSET	 0.000000	 0.000000	 0.570047
			CHANNELS 3 Zrotation Xrotation Yrotation
			JOINT RightFoot
			{
				OFFSET	 0.000000	 0.000000	 0.544354
				CHANNELS 3 Zrotation Xrotation Yrotation
				JOINT RightToeBase
				{
					OFFSET	 0.000000	 0.000000	 0.207540
					CHANNELS 3 Zrotation Xrotation Yrotation
					End Site
					{
						OFFSET	 0.000000	 0.000000	 0.207540
					}
				}
			}
		}
	}
	JOINT Spine
	{
		OFFSET	 0.000184	-0.007763	 0.117403
		CHANNELS 3 Zrotation Xrotation Yrotation
		JOINT Spine1
		{
			OFFSET	 0.000000	 0.000000	 0.137269
			CHANNELS 3 Zrotation Xrotation Yrotation
			JOINT Spine2
			{
				OFFSET	 0.000000	 0.000000	 0.156879
				CHANNELS 3 Zrotation Xrotation Yrotation
				JOINT LeftShoulder
				{
					OFFSET	 0.080501	-0.002496	 0.160144
					CHANNELS 3 Zrotation Xrotation Yrotation
					JOINT LeftArm
					{
						OFFSET	 0.000000	 0.000000	 0.164363
						CHANNELS 3 Zrotation Xrotation Yrotation
						JOINT LeftForeArm
						{
							OFFSET	 0.000000	 0.000000	 0.364576
							CHANNELS 3 Zrotation Xrotation Yrotation
							JOINT LeftHand
							{
								OFFSET	 0.000000	 0.000000	 0.360812
								CHANNELS 3 Zrotation Xrotation Yrotation
								JOINT LeftHandIndex1
								{
									OFFSET	 0.000000	 0.000000	 0.086006
									CHANNELS 3 Zrotation Xrotation Yrotation
									JOINT LeftHandIndex2
									{
										OFFSET	 0.000000	 0.000000	 0.047236
										CHANNELS 3 Zrotation Xrotation Yrotation
										JOINT LeftHandIndex3
										{
											OFFSET	-0.004284	-0.000551	 0.038166
											CHANNELS 3 Zrotation Xrotation Yrotation
											End Site
											{
												OFFSET	-0.004284	-0.000551	 0.038166
											}
										}
									}
								}
							}
						}
					}
				}
				JOINT Neck
				{
					OFFSET	 0.000000	 0.000000	 0.176489
					CHANNELS 3 Zrotation Xrotation Yrotation
					JOINT Head
					{
						OFFSET	 0.000000	-0.001747	 0.077940
						CHANNELS 3 Zrotation Xrotation Yrotation
						End Site
						{
							OFFSET	 0.000000	-0.001747	 0.077940
						}
					}
				}
				JOINT RightShoulder
				{
					OFFSET	-0.080363	 0.000306	 0.159706
					CHANNELS 3 Zrotation Xrotation Yrotation
					JOINT RightArm
					{
						OFFSET	 0.000000	 0.000000	 0.164196
						CHANNELS 3 Zrotation Xrotation Yrotation
						JOINT RightForeArm
						{
							OFFSET	 0.000000	 0.000000	 0.365611
							CHANNELS 3 Zrotation Xrotation Yrotation
							JOINT RightHand
							{
								OFFSET	 0.000000	 0.000000	 0.360648
								CHANNELS 3 Zrotation Xrotation Yrotation
								JOINT RightHandIndex1
								{
									OFFSET	 0.000000	 0.000000	 0.069977
									CHANNELS 3 Zrotation Xrotation Yrotation
									JOINT RightHandIndex2
									{
										OFFSET	 0.000000	 0.000000	 0.052305
										CHANNELS 3 Zrotation Xrotation Yrotation
										JOINT RightHandIndex3
										{
											OFFSET	 0.009002	-0.000782	 0.042196
											CHANNELS 3 Zrotation Xrotation Yrotation
											End Site
											{
												OFFSET	 0.009002	-0.000782	 0.042196
											}
										}
									}
								}
							}
						}
					}
				}
			}
		}
	}
}
MOTION
Frames:    7
Frame Time: 0.03333334
 3.329954	 6.863851	 1.075533	-90.872830	-2.113943	 0.149920	 6.525114	-2.361288	-178.553300	-2.459593	-35.584140	 1.277875	 10.427980	 89.814430	-9.360932	-2.376189	 30.420880	-0.043137	 1.578986	-29.526910	 179.451600	 21.238060	-72.843700	 24.697370	 177.529600	 89.276120	-170.203100	 2.378742	 29.641550	 0.027336	 5.063628	 4.527771	 1.057517	 8.803246	-1.756003	 1.607521	 11.918560	-4.577262	 1.265627	-91.797420	 78.076840	 178.905900	 35.704530	 63.599030	-47.465510	-10.700200	-3.141899	-32.257210	 3.644414	-2.110156	-5.366479	-3.812334	 37.924440	-2.927599	-2.450526	 36.184240	 0.754587	-1.378229	 35.397820	-2.634230	-0.317106	 4.041765	-1.855169	 3.433827	-12.147360	-0.699917	 89.793330	 78.749690	 179.528600	-41.825990	 71.358190	 43.877810	 3.426825	-6.602276	 28.735590	-13.111390	-3.210044	 9.586195	 6.437017	 35.671460	-0.771858	 2.830251	 35.756010	-7.813440	-2.350882	 35.473990	 5.254307
 3.305585	 6.862464	 1.073936	-90.756230	-1.967919	-0.197007	 6.217311	-0.548031	-178.020200	-2.774434	-34.182180	 1.049515	 102.127100	 89.980220	-101.377600	-2.376556	 30.353690	-0.041633	 1.805281	-31.077360	 179.591600	 17.470660	-69.787780	 20.805640	-178.701800	 88.806140	-173.823300	 2.377929	 29.801950	 0.030870	 5.795722	 4.532112	 1.443099	 8.555826	-1.839120	 1.582233	 11.712750	-4.669368	 1.252987	-91.786650	 78.317600	 178.850700	 35.438230	 62.969070	-48.037270	-10.523750	-3.239361	-33.221320	 3.729813	-2.109300	-5.366484	-3.812334	 37.924440	-2.927599	-2.450526	 36.184240	 0.754587	-1.378229	 35.397820	-2.634230	-0.334507	 4.091522	-2.101397	 3.456730	-12.292320	-0.562756	 89.788920	 78.510990	 179.492000	-41.732990	 71.415890	 43.387960	 3.547211	-6.644536	 29.366730	-12.945130	-3.204979	 9.589355	 6.437017	 35.671460	-0.771858	 2.830251	 35.756010	-7.813440	-2.350882	 35.473990	 5.254307
 3.278912	 6.861147	 1.072559	-90.636920	-1.772233	-0.515822	 6.020084	 1.658200	-177.497300	-3.037396	-32.079520	 0.946313	 19.861610	 89.854630	-19.253810	-2.376042	 30.448620	-0.043746	 1.966289	-32.475110	 179.729500	 14.260300	-65.987170	 17.333100	-175.643300	 88.885660	-176.722900	 2.377715	 29.844270	 0.031805	 6.598017	 4.494745	 1.819525	 8.288635	-1.928766	 1.552756	 11.470410	-4.766794	 1.236593	-91.774950	 78.551020	 178.797400	 35.122120	 62.343850	-48.601240	-10.376920	-3.332270	-34.131620	 3.813876	-2.102780	-5.367588	-3.812334	 37.924440	-2.927599	-2.450526	 36.184240	 0.754587	-1.378229	 35.397820	-2.634230	-0.357114	 4.164208	-2.346250	 3.459152	-12.450930	-0.472736	 89.783850	 78.280110	 179.466000	-41.666210	 71.487770	 42.969870	 3.664698	-6.669200	 29.891360	-12.801170	-3.200990	 9.591876	 6.437017	 35.671460	-0.771858	 2.830251	 35.756010	-7.813440	-2.350882	 35.473990	 5.254307
 3.251712	 6.860089	 1.071424	-90.536800	-1.554800	-0.718621	 5.979194	 4.126271	-177.141600	-3.287426	-29.383040	 0.935528	 11.911180	 89.625700	-11.310640	-2.373586	 30.894270	-0.053695	 2.087507	-33.601390	 179.769500	 11.850700	-61.779810	 14.572360	-170.494900	 89.125980	 178.317200	 2.379294	 29.531010	 0.024902	 7.414145	 4.411330	 2.076227	 8.040245	-2.009142	 1.526504	 11.214730	-4.853357	 1.217283	-91.766110	 78.710980	 178.765400	 34.873320	 61.744960	-49.169930	-10.345360	-3.329473	-34.904070	 3.734953	-2.097891	-5.368588	-3.812334	 37.924440	-2.927599	-2.450526	 36.184240	 0.754587	-1.378229	 35.397820	-2.634230	-0.368481	 4.244795	-2.550845	 3.432402	-12.592390	-0.436223	 89.780210	 78.121910	 179.451100	-41.617220	 71.575680	 42.650710	 3.767272	-6.674684	 30.231740	-12.703160	-3.198515	 9.593326	 6.437017	 35.671460	-0.771858	 2.830251	 35.756010	-7.813440	-2.350882	 35.473990	 5.254307
 3.227486	 6.859469	 1.070545	-90.463490	-1.335501	-0.829678	 6.135411	 6.486924	-177.006300	-3.449117	-26.556630	 1.030882	 8.760806	 89.199120	-7.955968	-2.369954	 31.521010	-0.067803	 2.225500	-34.399940	 179.744100	 10.248050	-57.883310	 12.647380	-162.525100	 89.332070	 170.548000	 2.383395	 28.668710	 0.006069	 8.144735	 4.298769	 2.227696	 7.844027	-2.092432	 1.516572	 10.993520	-4.920999	 1.199580	-91.761460	 78.793910	 178.756700	 34.692910	 61.270740	-49.630170	-10.345290	-3.297049	-35.449640	 3.630865	-2.118816	-5.364930	-3.812334	 37.924440	-2.927599	-2.450526	 36.184240	 0.754587	-1.378229	 35.397820	-2.634230	-0.354291	 4.311607	-2.708268	 3.398869	-12.693130	-0.427469	 89.778240	 78.038920	 179.447500	-41.570410	 71.670940	 42.433790	 3.842986	-6.665233	 30.358760	-12.663420	-3.197961	 9.593687	 6.437017	 35.671460	-0.771858	 2.830251	 35.756010	-7.813440	-2.350882	 35.473990	 5.254307
 3.200224	 6.859163	 1.069672	-90.385910	-1.073577	-0.925303	 6.558064	 9.285869	-177.043900	-3.528791	-22.936330	 1.240190	 6.341533	 88.226230	-4.971938	-2.364398	 32.420560	-0.088293	 2.401923	-35.001420	 179.691700	 8.768104	-53.508280	 10.822490	-148.593400	 89.495650	 156.785200	 2.387546	 27.712170	-0.014572	 8.963741	 4.131320	 2.360997	 7.649936	-2.198313	 1.522619	 10.762120	-4.986631	 1.180313	-91.757740	 78.859240	 178.753400	 34.515470	 60.840150	-50.076150	-10.335270	-3.276466	-35.893250	 3.566695	-2.114749	-5.365783	-3.812334	 37.924440	-2.927599	-2.450526	 36.184240	 0.754587	-1.378229	 35.397820	-2.634230	-0.309783	 4.370433	-2.869919	 3.370216	-12.769210	-0.422263	 89.776790	 77.974170	 179.452500	-41.500700	 71.799560	 42.247070	 3.906406	-6.640328	 30.293500	-12.678110	-3.198997	 9.593060	 6.437017	 35.671460	-0.771858	 2.830251	 35.756010	-7.813440	-2.350882	 35.473990	 5.254307
 3.170041	 6.858564	 1.068534	-90.286470	-0.816615	-1.050067	 7.239349	 13.477480	-176.887500	-3.815291	-17.076590	 1.427708	 4.383476	 86.176070	-2.054456	-2.356205	 33.629440	-0.116341	 2.718109	-35.390030	 179.714800	 7.227358	-48.975100	 9.071009	-144.902400	 89.593140	 153.073200	 2.388529	 27.470100	-0.019755	 9.819780	 3.935589	 2.511358	 7.456017	-2.298892	 1.543342	 10.528270	-5.040158	 1.159410	-91.754550	 78.913540	 178.746500	 34.351320	 60.527160	-50.480310	-10.371790	-3.256436	-36.169980	 3.526530	-2.112444	-5.366259	-3.812334	 37.924440	-2.927599	-2.450526	 36.184240	 0.754587	-1.378229	 35.397820	-2.634230	-0.244937	 4.403880	-3.021505	 3.354417	-12.797820	-0.403785	 89.775640	 77.920530	 179.457400	-41.416600	 71.958990	 42.116230	 3.934217	-6.597388	 29.970060	-12.769900	-3.202144	 9.591183	 6.437017	 35.671460	-0.771858	 2.830251	 35.756010	-7.813440	-2.350882	 35.473990	 5.254307
